<svg width="28" height="29" viewBox="0 0 28 29" fill="none" xmlns="http://www.w3.org/2000/svg">
<path d="M23.0812 7.5H4.8355C4.55234 7.5 4.47321 7.90083 4.73381 8.0151L13.8566 12.0154C13.9216 12.0439 13.995 12.0439 14.06 12.0154L23.1829 8.0151C23.4434 7.90083 23.3643 7.5 23.0812 7.5Z" fill="white"/>
<path d="M4.04387 9.73904L12.7009 23.3782C12.8424 23.6012 13.1784 23.4978 13.1784 23.2313L13.1784 13.5752C13.1784 13.4693 13.118 13.3734 13.0243 13.3302L4.36725 9.34712C4.1303 9.23809 3.90174 9.51511 4.04387 9.73904Z" fill="white"/>
<path d="M15.2991 23.3782L23.9561 9.73904C24.0983 9.51511 23.8697 9.23809 23.6327 9.34712L14.9757 13.3302C14.882 13.3734 14.8216 13.4693 14.8216 13.5752L14.8216 23.2313C14.8216 23.4978 15.1576 23.6012 15.2991 23.3782Z" fill="white"/>
</svg>
