<svg
  width="30"
  height="30"
  viewBox="0 0 30 30"
  fill="none"
  xmlns="http://www.w3.org/2000/svg"
>
  <path
    d="M4.28571 12.8571C4.28571 9.85686 4.28571 8.35672 4.8696 7.21076C5.38321 6.20275 6.20275 5.38321 7.21076 4.86961C8.35671 4.28571 9.85685 4.28571 12.8571 4.28571H14.1428V10.4263C13.9587 10.1158 13.7473 9.82632 13.5009 9.58008C12.8673 8.94691 11.972 8.38027 10.9921 8.17295C9.97812 7.95839 8.84098 8.13139 7.92749 9.04476C7.45793 9.51425 7.19483 10.0731 7.13743 10.6736C7.0816 11.2577 7.22562 11.8175 7.45731 12.3093C7.77936 12.993 8.3057 13.6223 8.90184 14.1429H4.28571V12.8571Z"
    fill="#ccc"
  />
  <path
    d="M4.28571 15.8571V17.1429C4.28571 20.1431 4.28571 21.6433 4.8696 22.7892C5.38321 23.7972 6.20275 24.6168 7.21076 25.1304C8.35671 25.7143 9.85685 25.7143 12.8571 25.7143H14.1428V18.1644C12.6907 20.0557 10.9028 21.3553 8.75003 21.7859C8.25682 21.8845 7.77703 21.5647 7.67839 21.0715C7.57975 20.5783 7.89961 20.0985 8.39281 19.9998C10.3601 19.6064 12.0831 18.212 13.509 15.8674C13.4777 15.8641 13.4462 15.8607 13.4144 15.8571H4.28571Z"
    fill="#ccc"
  />
  <path
    d="M16.5856 15.8571C16.5538 15.8607 16.5222 15.8641 16.491 15.8674C17.9168 18.212 19.6399 19.6064 21.6072 19.9998C22.1004 20.0985 22.4202 20.5783 22.3216 21.0715C22.2229 21.5647 21.7432 21.8845 21.25 21.7859C19.0972 21.3553 17.3092 20.0557 15.8571 18.1644V25.7143H17.1428C20.1431 25.7143 21.6433 25.7143 22.7892 25.1304C23.7972 24.6168 24.6168 23.7972 25.1304 22.7892C25.7143 21.6433 25.7143 20.1431 25.7143 17.1429V15.8571H16.5856Z"
    fill="#ccc"
  />
  <path
    d="M25.7143 14.1429V12.8571C25.7143 9.85686 25.7143 8.35672 25.1304 7.21076C24.6168 6.20275 23.7972 5.38321 22.7892 4.86961C21.6433 4.28571 20.1431 4.28571 17.1428 4.28571H15.8571V10.4263C16.0413 10.1158 16.2527 9.82632 16.4991 9.58008C17.1327 8.94691 18.028 8.38027 19.0078 8.17295C20.0219 7.95839 21.159 8.13139 22.0725 9.04476C22.542 9.51425 22.8051 10.0731 22.8626 10.6736C22.9184 11.2577 22.7744 11.8175 22.5427 12.3093C22.2206 12.993 21.6943 13.6223 21.0981 14.1429H25.7143Z"
    fill="#ccc"
  />
  <path
    d="M19.3849 9.95492C18.8172 10.075 18.2244 10.4309 17.7866 10.8685C17.4152 11.2396 17.1076 11.9098 16.7886 12.819C16.7153 13.0279 16.6406 13.2528 16.5636 13.4847C16.5022 13.6694 16.4392 13.8591 16.3745 14.048C16.476 14.0367 16.5807 14.0241 16.6877 14.0098C17.6736 13.8784 18.6981 13.6295 19.3162 13.2174C20.0296 12.7418 20.6219 12.1127 20.8949 11.5331C21.0278 11.251 21.0661 11.022 21.0494 10.847C21.0342 10.6884 20.9699 10.518 20.7846 10.3328C20.3884 9.93665 19.9184 9.84203 19.3849 9.95492Z"
    fill="#ccc"
  />
  <path
    d="M12.2134 10.8685C11.7755 10.4309 11.1828 10.075 10.6151 9.95492C10.0815 9.84203 9.61154 9.93665 9.21535 10.3328C9.03007 10.518 8.96575 10.6884 8.95059 10.847C8.93386 11.022 8.97214 11.251 9.10506 11.5331C9.37807 12.1127 9.97037 12.7418 10.6837 13.2174C11.3019 13.6295 12.3264 13.8784 13.3123 14.0098C13.4193 14.0241 13.524 14.0367 13.6255 14.048C13.5608 13.8591 13.4979 13.6699 13.4366 13.4852C13.3596 13.2533 13.2847 13.0279 13.2114 12.819C12.8924 11.9098 12.5848 11.2396 12.2134 10.8685Z"
    fill="#ccc"
  />
</svg>