<svg width="29" height="29" viewBox="0 0 29 29" fill="none" xmlns="http://www.w3.org/2000/svg">
<path d="M10.2518 23.5H18.7482C19.9219 23.5 20.5 22.9003 20.5 21.5737V14.768C20.5 13.5687 20.027 12.9599 19.046 12.8599V10.6156C19.046 7.1628 16.8299 5.5 14.5 5.5C12.1701 5.5 9.95401 7.1628 9.95401 10.6156V12.8872C9.04307 13.0326 8.5 13.6323 8.5 14.768V21.5737C8.5 22.9003 9.0781 23.5 10.2518 23.5ZM11.6358 10.452C11.6358 8.33493 12.9321 7.17188 14.5 7.17188C16.0591 7.17188 17.3642 8.33493 17.3642 10.452V12.8417L11.6358 12.8508V10.452Z" fill="white"/>
</svg>
