<svg
  width="31"
  height="30"
  viewBox="0 0 31 30"
  fill="none"
  xmlns="http://www.w3.org/2000/svg"
>
  <g clipPath="url(#clip0_394_5485)">
    <path
      d="M26.75 7.12483V16.7373C26.5875 17.2873 26.3 17.7873 25.8875 18.1998L18.7125 25.3748C18.3 25.7873 17.8 26.0873 17.25 26.2373H7.62502C5.77502 26.2373 4.25 24.7123 4.25 22.8623V7.11232C4.25 5.24982 5.77502 3.7373 7.62502 3.7373H23.375C25.225 3.7373 26.75 5.24982 26.75 7.11232V7.12483Z"
      stroke="#007AFF"
      strokeWidth="1.6"
      strokeLinecap="round"
      strokeLinejoin="round"
    />
    <path
      d="M9.57501 10.7251C9.57501 11.9126 10.5375 12.8626 11.7125 12.8626C12.8875 12.8626 13.85 11.9126 13.85 10.7251"
      stroke="#007AFF"
      strokeWidth="1.6"
      strokeLinecap="round"
      strokeLinejoin="round"
    />
    <path
      d="M16.5375 10.7251C16.5375 11.9126 17.4875 12.8626 18.675 12.8626C19.8625 12.8626 20.8125 11.9126 20.8125 10.7251"
      stroke="#007AFF"
      strokeWidth="1.6"
      strokeLinecap="round"
      strokeLinejoin="round"
    />
    <path
      d="M26.75 16.7374C26.5875 17.2874 26.3 17.7874 25.8875 18.1999L18.7125 25.3749C18.3 25.7874 17.8 26.0874 17.25 26.2374C16.2625 25.0624 15.6625 23.5499 15.6625 21.8999C15.6625 21.8499 15.6625 21.8249 15.6625 21.7749C15.6625 20.3624 16.1375 19.0374 16.9125 17.9749C18.1375 16.2624 20.1375 15.1499 22.4 15.1499C24.05 15.1499 25.575 15.7499 26.7375 16.7374H26.75Z"
      stroke="#007AFF"
      strokeWidth="1.6"
      strokeLinecap="round"
      strokeLinejoin="round"
    />
    <path
      d="M16.9125 17.975C16.1375 19.05 15.675 20.3625 15.6625 21.775C15.075 21.8375 14.4875 21.8 13.925 21.6375C12.175 21.1625 10.775 19.725 10.2 17.85C10.1375 17.6875 10.2625 17.5 10.4375 17.5C12.5625 18.0125 14.75 18.1625 16.9 17.975H16.9125Z"
      stroke="#007AFF"
      strokeWidth="1.6"
      strokeLinecap="round"
      strokeLinejoin="round"
    />
  </g>
  <defs>
    <clipPath id="clip0_394_5485">
      <rect
        width="30"
        height="30"
        fill="white"
        transform="translate(0.5)"
      />
    </clipPath>
  </defs>
</svg>