<svg width="30" height="30" viewBox="0 0 30 30" fill="none" xmlns="http://www.w3.org/2000/svg">
<path d="M17.4722 19.8378C17.6249 19.7317 17.8364 19.7998 17.8991 19.9753L20.2743 26.6205C20.3507 26.8342 20.1582 27.0467 19.9388 26.991L11.1938 24.7687C10.9586 24.709 10.9028 24.3993 11.1023 24.2608L17.4722 19.8378Z" fill="#007AFF"/>
<path d="M19.0062 18.3711C18.9953 18.3404 18.9897 18.308 18.9897 18.2754V11.5782C18.9897 11.3887 18.808 11.2526 18.6269 11.3063L11.1333 13.5274C10.9522 13.5811 10.7706 13.445 10.7706 13.2555V8.92729C10.7706 8.83882 10.8117 8.75541 10.8819 8.70178L20.647 1.23786C20.7827 1.13413 20.9784 1.17374 21.0634 1.32214L26.9624 11.622C27.0042 11.695 27.0115 11.7828 26.9824 11.8617L22.0159 25.3128C21.9243 25.5609 21.5737 25.5591 21.4847 25.3099L19.0062 18.3711Z" fill="#007AFF"/>
<path d="M8.27014 1.81836C8.3173 1.77204 8.37914 1.74373 8.44493 1.73835L17.4578 1.00106C17.7393 0.978025 17.8767 1.33776 17.6519 1.5093L9.96979 7.37091C9.89869 7.42516 9.8062 7.44251 9.72036 7.41769L4.66164 5.95509C4.45356 5.89493 4.38744 5.63205 4.54216 5.48008L8.27014 1.81836Z" fill="#007AFF"/>
<path d="M3.25349 7.42683C3.27504 7.25389 3.44557 7.14121 3.61249 7.18962L8.97377 8.7444C9.0947 8.77946 9.17793 8.89051 9.17793 9.01677V15.3117C9.17793 15.5013 9.35973 15.6374 9.54089 15.5836L16.9825 13.3723C17.1636 13.3185 17.3454 13.4546 17.3454 13.6441V17.6426C17.3454 17.7354 17.3001 17.8224 17.2241 17.8754L8.87741 23.6944C8.76856 23.7703 8.62175 23.7602 8.52434 23.67L2.09093 17.7125C2.02392 17.6505 1.99087 17.5598 2.00219 17.469L3.25349 7.42683Z" fill="#007AFF"/>
</svg>
