<svg width="29" height="28" viewBox="0 0 29 28" fill="none" xmlns="http://www.w3.org/2000/svg">
<path d="M14.5 7V24L6.20312 9.7976C6.0599 9.51127 5.99055 9.19458 6.00103 8.8755C6.01152 8.55642 6.10154 8.24482 6.26326 7.96823C6.42498 7.69163 6.65339 7.45858 6.9282 7.2897C7.20302 7.12081 7.51566 7.02136 7.83877 7H14.5Z" stroke="white" stroke-width="1.6" stroke-linecap="round" stroke-linejoin="round"/>
<path d="M14.5 24L22.7967 9.7976C22.9399 9.51127 23.0095 9.19458 22.999 8.8755C22.9885 8.55642 22.8982 8.24482 22.7365 7.96823C22.5748 7.69163 22.3466 7.45858 22.0718 7.2897C21.797 7.12081 21.4841 7.02136 21.161 7H14.5V24Z" stroke="white" stroke-width="1.6" stroke-linecap="round" stroke-linejoin="round"/>
</svg>
