<svg width="28" height="29" viewBox="0 0 28 29" fill="none" xmlns="http://www.w3.org/2000/svg">
<path d="M22.7716 8.33119C22.467 7.80386 21.8998 7.47632 21.2908 7.47632H8.66626L10.3057 10.3159H19.3338L14.8198 18.1346L16.4592 20.9742L22.7716 10.0409C23.0761 9.5136 23.0761 8.85852 22.7716 8.33119Z" fill="white"/>
<path d="M13.9999 19.5543L8.66609 10.3159H8.67101L7.0319 7.47626H6.70911C6.10024 7.47626 5.53285 7.8038 5.22832 8.33113C4.9238 8.85846 4.92398 9.51354 5.22832 10.0409L12.5191 22.6689C12.8234 23.1962 13.3908 23.5238 13.9997 23.5238C14.6085 23.5238 15.1759 23.1962 15.4805 22.6689L15.6409 22.3911L14.0016 19.5511L13.9999 19.5543ZM13.0213 21.2491C13.0216 21.2484 13.0222 21.2477 13.0225 21.247C13.0222 21.2477 13.0218 21.2484 13.0213 21.2491Z" fill="white"/>
</svg>
