<svg width="29" height="29" viewBox="0 0 29 29" fill="none" xmlns="http://www.w3.org/2000/svg">
<path d="M22.7094 11.244C22.7094 11.413 22.7094 11.5821 22.7094 11.7271C22.7094 16.7271 18.893 22.5 11.9365 22.5C9.78673 22.5 7.80606 21.872 6.11523 20.8092C6.40509 20.8333 6.7191 20.8575 7.00895 20.8575C8.77224 20.8575 10.4148 20.2536 11.7191 19.2391C10.0524 19.215 8.65147 18.1039 8.19253 16.6063C8.43407 16.6546 8.65147 16.6787 8.91717 16.6787C9.25533 16.6787 9.59349 16.6304 9.9075 16.5338C8.16837 16.1957 6.86403 14.6739 6.86403 12.8382C6.86403 12.814 6.86403 12.814 6.86403 12.7899C7.37127 13.0797 7.95098 13.2488 8.579 13.2729C7.56451 12.5966 6.88818 11.4372 6.88818 10.1087C6.88818 9.40821 7.08142 8.75604 7.39543 8.20048C9.25533 10.4952 12.0573 11.9928 15.1974 12.1618C15.1249 11.8961 15.1007 11.5821 15.1007 11.2923C15.1007 9.19082 16.7916 7.5 18.893 7.5C19.98 7.5 20.9703 7.95894 21.6466 8.68357C22.5162 8.51449 23.3133 8.20048 24.0621 7.7657C23.7722 8.65942 23.1684 9.38406 22.3954 9.86715C23.1684 9.77053 23.893 9.57729 24.5693 9.26329C24.0862 10.0362 23.4582 10.7126 22.7094 11.244Z" fill="white"/>
</svg>
