<svg width="29" height="29" viewBox="0 0 29 29" fill="none" xmlns="http://www.w3.org/2000/svg">
<path fill-rule="evenodd" clip-rule="evenodd" d="M20.9797 18.854H22.9389V20.2109C22.9389 20.7077 22.7325 21.1841 22.3651 21.5354C21.9976 21.8867 21.4993 22.0841 20.9796 22.0841H6.9404C6.81495 22.0841 6.69074 22.0726 6.56932 22.0502C6.44968 21.9667 6.3368 21.8723 6.23223 21.7678C5.76339 21.2989 5.5 20.6631 5.5 20V11C5.5 10.337 5.76339 9.70109 6.23223 9.23224C6.26448 9.2 6.29752 9.16873 6.3313 9.13844C6.52615 9.07751 6.73155 9.04563 6.9404 9.04563H9.5539C9.56139 9.04574 9.56888 9.04574 9.57637 9.04563H20.9796C21.4993 9.04563 21.9976 9.24298 22.3651 9.59427C22.7325 9.94556 22.9389 10.422 22.9389 10.9188V12.2757H20.9797C20.0672 12.2757 19.1922 12.6223 18.547 13.2391C17.9018 13.8559 17.5393 14.6925 17.5393 15.5649C17.5393 16.4372 17.9018 17.2738 18.547 17.8906C19.1922 18.5074 20.0672 18.854 20.9797 18.854ZM20.9797 13.6917H23.6782L23.6795 13.6917L23.6795 13.6917C23.7696 13.6917 23.8559 13.7259 23.9195 13.7867C23.9832 13.8476 24.019 13.9301 24.019 14.0162V17.1135C24.019 17.1996 23.9832 17.2821 23.9195 17.343C23.8559 17.4038 23.7696 17.438 23.6795 17.438H20.9797C20.46 17.438 19.9617 17.2407 19.5942 16.8894C19.2268 16.5381 19.0204 16.0616 19.0204 15.5649C19.0204 15.0681 19.2268 14.5916 19.5942 14.2403C19.9617 13.889 20.46 13.6917 20.9797 13.6917ZM19.5364 7.62969L17.8333 5.45874C17.6156 5.18125 17.2951 4.994 16.9375 4.93544C16.5799 4.87688 16.2124 4.95146 15.9105 5.14386L12.0103 7.62969H19.5364Z" fill="white"/>
</svg>
